<svg width="32" height="32" viewBox="0 0 32 32" fill="none" xmlns="http://www.w3.org/2000/svg">
<g clip-path="url(#clip0)">
<rect width="32" height="32" rx="16" fill="#3FA3DB"/>
<path d="M14.5 7L13 5.5H11V7H13H14.5Z" fill="#337CBF"/>
<path d="M22.5 7L21 5.5H19V7H22.5Z" fill="#337CBF"/>
<path d="M7.5 24L24.5 8L36 20L19.5 36.5L7.5 24Z" fill="#337CBF"/>
<rect x="7" y="7" width="18" height="18" rx="2" fill="white"/>
<rect width="18" height="5" transform="translate(7 7)" fill="#EF4C45" fill-opacity="0.99"/>
<path d="M13.87 22.17C13.6033 22.17 13.37 22.1133 13.17 22C12.9767 21.8933 12.88 21.7033 12.88 21.43C12.88 21.2567 12.9233 21.0633 13.01 20.85C13.13 20.9833 13.24 21.0767 13.34 21.13C13.4467 21.1833 13.56 21.21 13.68 21.21C14.0133 21.21 14.26 21.0233 14.42 20.65C14.5867 20.2767 14.67 19.8633 14.67 19.41C14.67 18.5633 14.3533 18.14 13.72 18.14C13.54 18.14 13.3867 18.15 13.26 18.17L12.44 22H11L12.36 15.64L13.84 15.44L13.37 17.66H13.43C13.6833 17.66 13.92 17.58 14.14 17.42C14.36 17.2533 14.5367 17.0467 14.67 16.8C14.8033 16.5467 14.87 16.2933 14.87 16.04C14.87 15.7333 14.76 15.4767 14.54 15.27C14.3267 15.0633 13.9967 14.96 13.55 14.96C13.1433 14.96 12.7467 15.0533 12.36 15.24C11.9733 15.42 11.6567 15.6933 11.41 16.06C11.17 16.4267 11.05 16.87 11.05 17.39C11.05 17.6367 11.0733 17.81 11.12 17.91C11.1667 18.0033 11.19 18.0567 11.19 18.07C10.8367 18.07 10.57 18 10.39 17.86C10.21 17.7133 10.12 17.4767 10.12 17.15C10.12 16.6967 10.29 16.2667 10.63 15.86C10.97 15.4533 11.42 15.1267 11.98 14.88C12.54 14.6267 13.13 14.5 13.75 14.5C14.2167 14.5 14.61 14.5733 14.93 14.72C15.25 14.8667 15.4867 15.06 15.64 15.3C15.8 15.54 15.88 15.8033 15.88 16.09C15.88 16.3967 15.7933 16.6933 15.62 16.98C15.4467 17.2667 15.2 17.5 14.88 17.68C15.28 17.7533 15.5767 17.94 15.77 18.24C15.9633 18.5333 16.06 18.8833 16.06 19.29C16.06 19.67 15.9867 20.0833 15.84 20.53C15.7 20.9767 15.4633 21.3633 15.13 21.69C14.8033 22.01 14.3833 22.17 13.87 22.17ZM19.3963 15.38H19.2763C18.6829 15.38 18.2196 15.53 17.8863 15.83C17.5596 16.1233 17.3963 16.6467 17.3963 17.4C17.3963 17.6467 17.4196 17.82 17.4663 17.92C17.5129 18.0133 17.5363 18.0667 17.5363 18.08C17.1763 18.08 16.9063 18.0067 16.7263 17.86C16.5529 17.7067 16.4663 17.4567 16.4663 17.11C16.4663 16.6367 16.5829 16.2067 16.8163 15.82C17.0496 15.4267 17.4196 15.11 17.9263 14.87C18.4396 14.63 19.0896 14.51 19.8763 14.51C20.3163 14.51 20.7896 14.55 21.2963 14.63C21.7229 14.7033 22.1029 14.74 22.4363 14.74C22.8629 14.74 23.2496 14.67 23.5963 14.53C23.5829 14.9633 23.4729 15.2833 23.2663 15.49C23.0596 15.6967 22.7529 15.8 22.3463 15.8C22.1329 15.8 21.9196 15.7833 21.7063 15.75C21.4929 15.7167 21.1896 15.66 20.7963 15.58L19.4163 22H17.9763L19.3963 15.38Z" fill="#535A85"/>
<path d="M18.5 5.51497C18.0634 5.95159 18 7.01497 18 7.01497H19C19 7.01497 19 6.01497 19.5 6.01497C20 6.01497 20.3254 6.49103 20.5 7.01497C20.6235 7.38546 20.6235 7.64449 20.5 8.01497C20.3254 8.53892 19.5 9.01497 19.5 9.01497C19.5 9.01497 19.4127 9.34033 19.5 9.51498C19.6746 9.86427 20 10.015 20 10.015C20 10.015 21.1572 9.26915 21.5 8.51498C21.904 7.62618 22 7.01498 21.5 6.01498C21.1851 5.38527 20.7004 5.08603 20 5.01497C19.3857 4.95265 18.9366 5.07836 18.5 5.51497Z" fill="#525F71"/>
<path d="M10.5 5.5C10.0634 5.93662 10 7 10 7H11C11 7 11 6 11.5 6C12 6 12.3254 6.47605 12.5 7C12.6235 7.37048 12.6235 7.62951 12.5 8C12.3254 8.52394 11.5 9 11.5 9C11.5 9 11.4127 9.32535 11.5 9.5C11.6746 9.8493 12 10 12 10C12 10 13.1572 9.25417 13.5 8.5C13.904 7.6112 14 7 13.5 6C13.1851 5.3703 12.7004 5.07106 12 5C11.3857 4.93768 10.9366 5.06338 10.5 5.5Z" fill="#525F71"/>
</g>
<defs>
<clipPath id="clip0">
<rect width="32" height="32" rx="16" fill="white"/>
</clipPath>
</defs>
</svg>
