<svg width="100" height="20" viewBox="0 0 100 20" fill="none" xmlns="http://www.w3.org/2000/svg">
<g clip-path="url(#clip0_103_2)">
<path d="M9.74 18.34C9.20667 18.34 8.74 18.2267 8.34 18C7.95333 17.7867 7.76 17.4067 7.76 16.86C7.76 16.5133 7.84667 16.1267 8.02 15.7C8.26 15.9667 8.48 16.1533 8.68 16.26C8.89333 16.3667 9.12 16.42 9.36 16.42C10.0267 16.42 10.52 16.0467 10.84 15.3C11.1733 14.5533 11.34 13.7267 11.34 12.82C11.34 11.1267 10.7067 10.28 9.44 10.28C9.08 10.28 8.77333 10.3 8.52 10.34L6.88 18H4L6.72 5.28L9.68 4.88L8.74 9.32H8.86C9.36667 9.32 9.84 9.16 10.28 8.84C10.72 8.50667 11.0733 8.09333 11.34 7.6C11.6067 7.09333 11.74 6.58667 11.74 6.08C11.74 5.46667 11.52 4.95333 11.08 4.54C10.6533 4.12667 9.99333 3.92 9.1 3.92C8.28667 3.92 7.49333 4.10667 6.72 4.48C5.94667 4.84 5.31333 5.38667 4.82 6.12C4.34 6.85333 4.1 7.74 4.1 8.78C4.1 9.27333 4.14667 9.62 4.24 9.82C4.33333 10.0067 4.38 10.1133 4.38 10.14C3.67333 10.14 3.14 10 2.78 9.72C2.42 9.42667 2.24 8.95333 2.24 8.3C2.24 7.39333 2.58 6.53333 3.26 5.72C3.94 4.90667 4.84 4.25333 5.96 3.76C7.08 3.25333 8.26 3 9.5 3C10.4333 3 11.22 3.14667 11.86 3.44C12.5 3.73333 12.9733 4.12 13.28 4.6C13.6 5.08 13.76 5.60667 13.76 6.18C13.76 6.79333 13.5867 7.38667 13.24 7.96C12.8933 8.53333 12.4 9 11.76 9.36C12.56 9.50667 13.1533 9.88 13.54 10.48C13.9267 11.0667 14.12 11.7667 14.12 12.58C14.12 13.34 13.9733 14.1667 13.68 15.06C13.4 15.9533 12.9267 16.7267 12.26 17.38C11.6067 18.02 10.7667 18.34 9.74 18.34ZM18.1525 6.92C17.7125 6.92 17.3392 6.76667 17.0325 6.46C16.7258 6.15333 16.5725 5.78 16.5725 5.34C16.5725 4.9 16.7258 4.52667 17.0325 4.22C17.3392 3.9 17.7125 3.74 18.1525 3.74C18.5925 3.74 18.9658 3.9 19.2725 4.22C19.5925 4.52667 19.7525 4.9 19.7525 5.34C19.7525 5.78 19.5925 6.15333 19.2725 6.46C18.9658 6.76667 18.5925 6.92 18.1525 6.92ZM16.7925 18.12C16.1525 18.12 15.6325 17.92 15.2325 17.52C14.8458 17.12 14.6525 16.52 14.6525 15.72C14.6525 15.3867 14.7058 14.9533 14.8125 14.42L16.1725 8H19.0525L17.6125 14.8C17.5592 15 17.5325 15.2133 17.5325 15.44C17.5325 15.7067 17.5925 15.9 17.7125 16.02C17.8458 16.1267 18.0592 16.18 18.3525 16.18C18.5925 16.18 18.8058 16.14 18.9925 16.06C18.9392 16.7267 18.6992 17.24 18.2725 17.6C17.8592 17.9467 17.3658 18.12 16.7925 18.12ZM24.9722 4.76H24.7322C23.5455 4.76 22.6189 5.06 21.9522 5.66C21.2989 6.24667 20.9722 7.29333 20.9722 8.8C20.9722 9.29333 21.0189 9.64 21.1122 9.84C21.2055 10.0267 21.2522 10.1333 21.2522 10.16C20.5322 10.16 19.9922 10.0133 19.6322 9.72C19.2855 9.41333 19.1122 8.91333 19.1122 8.22C19.1122 7.27333 19.3455 6.41333 19.8122 5.64C20.2789 4.85333 21.0189 4.22 22.0322 3.74C23.0589 3.26 24.3589 3.02 25.9322 3.02C26.8122 3.02 27.7589 3.1 28.7722 3.26C29.6255 3.40667 30.3855 3.48 31.0522 3.48C31.9055 3.48 32.6789 3.34 33.3722 3.06C33.3455 3.92667 33.1255 4.56667 32.7122 4.98C32.2989 5.39333 31.6855 5.6 30.8722 5.6C30.4455 5.6 30.0189 5.56667 29.5922 5.5C29.1655 5.43333 28.5589 5.32 27.7722 5.16L25.0122 18H22.1322L24.9722 4.76ZM31.0211 18.12C30.2611 18.12 29.6278 17.86 29.1211 17.34C28.6144 16.82 28.3611 16.0067 28.3611 14.9C28.3611 13.9133 28.5544 12.88 28.9411 11.8C29.3411 10.7067 29.9278 9.78667 30.7011 9.04C31.4878 8.28 32.4211 7.9 33.5011 7.9C34.0478 7.9 34.4544 7.99333 34.7211 8.18C34.9878 8.36667 35.1211 8.61333 35.1211 8.92V9.06L35.3411 8H38.2211L36.7811 14.8C36.7278 15 36.7011 15.2133 36.7011 15.44C36.7011 15.7067 36.7611 15.9 36.8811 16.02C37.0144 16.1267 37.2278 16.18 37.5211 16.18C37.7078 16.18 37.8544 16.1533 37.9611 16.1C37.6678 16.8467 37.3878 17.3733 37.1211 17.68C36.8544 17.9733 36.4678 18.12 35.9611 18.12C35.4144 18.12 34.9678 17.96 34.6211 17.64C34.2878 17.3067 34.0811 16.8467 34.0011 16.26C33.1878 17.5 32.1944 18.12 31.0211 18.12ZM32.3211 16.18C32.6544 16.18 32.9811 16.0267 33.3011 15.72C33.6344 15.4 33.8611 14.9667 33.9811 14.42L34.9411 9.9C34.9411 9.72667 34.8744 9.56 34.7411 9.4C34.6078 9.22667 34.4011 9.14 34.1211 9.14C33.5878 9.14 33.1078 9.45333 32.6811 10.08C32.2544 10.6933 31.9211 11.44 31.6811 12.32C31.4411 13.1867 31.3211 13.9533 31.3211 14.62C31.3211 15.2867 31.4144 15.7133 31.6011 15.9C31.8011 16.0867 32.0411 16.18 32.3211 16.18Z" fill="#3FA3DB"/>
<path d="M46.653 20.28C46.1596 20.28 45.7263 20.24 45.353 20.16C44.9796 20.08 44.653 19.8867 44.373 19.58C44.1063 19.2733 43.973 18.8 43.973 18.16C43.973 17.2667 44.2396 16.0667 44.773 14.56C45.3196 13.0533 46.033 11.54 46.913 10.02C46.2463 10.06 45.7196 10.16 45.333 10.32C44.9463 10.48 44.693 10.7267 44.573 11.06C44.6263 11.06 44.6796 11.1267 44.733 11.26C44.7996 11.3933 44.833 11.5333 44.833 11.68C44.833 11.92 44.7263 12.1133 44.513 12.26C44.2996 12.3933 44.033 12.46 43.713 12.46C43.3396 12.46 43.0396 12.36 42.813 12.16C42.5863 11.96 42.473 11.6733 42.473 11.3C42.473 10.8467 42.6463 10.4333 42.993 10.06C43.353 9.68667 43.8463 9.39333 44.473 9.18C45.0996 8.95333 45.793 8.84 46.553 8.84C46.833 8.84 47.1796 8.86 47.593 8.9C48.6863 7.16667 49.8396 5.75333 51.053 4.66C52.2796 3.55333 53.4463 3 54.553 3C55.193 3 55.7196 3.09333 56.133 3.28L52.993 18H50.113L51.653 10.74C51.1596 10.5133 50.7063 10.3467 50.293 10.24C49.8796 10.1333 49.4396 10.06 48.973 10.02C48.213 11.66 47.5863 13.34 47.093 15.06C46.613 16.7667 46.373 18.1333 46.373 19.16C46.373 19.6667 46.4663 20.04 46.653 20.28ZM52.993 4.42C52.4196 4.72667 51.8196 5.3 51.193 6.14C50.5796 6.96667 49.9796 7.97333 49.393 9.16C50.353 9.34667 51.1663 9.58 51.833 9.86L52.993 4.42ZM58.0523 18.12C57.2923 18.12 56.659 17.86 56.1523 17.34C55.6457 16.82 55.3923 16.0067 55.3923 14.9C55.3923 13.9133 55.5857 12.88 55.9723 11.8C56.3723 10.7067 56.959 9.78667 57.7323 9.04C58.519 8.28 59.4523 7.9 60.5323 7.9C61.079 7.9 61.4857 7.99333 61.7523 8.18C62.019 8.36667 62.1523 8.61333 62.1523 8.92V9L63.1323 4.4L66.0923 4L63.7923 14.8C63.739 15 63.7123 15.2133 63.7123 15.44C63.7123 15.7067 63.7723 15.9 63.8923 16.02C64.0257 16.1267 64.239 16.18 64.5323 16.18C64.9057 16.18 65.2257 16.02 65.4923 15.7C65.7723 15.38 65.9923 14.9533 66.1523 14.42H66.9923C66.179 16.8067 64.839 18 62.9723 18C62.4257 18 61.979 17.8533 61.6323 17.56C61.299 17.2667 61.0923 16.84 61.0123 16.28C60.6657 16.8133 60.2457 17.2533 59.7523 17.6C59.2723 17.9467 58.7057 18.12 58.0523 18.12ZM59.3523 16.18C59.6723 16.18 59.9923 16.0333 60.3123 15.74C60.6457 15.4467 60.8723 15.04 60.9923 14.52V14.42L61.9723 9.84C61.8523 9.37333 61.579 9.14 61.1523 9.14C60.619 9.14 60.139 9.45333 59.7123 10.08C59.2857 10.6933 58.9523 11.44 58.7123 12.32C58.4723 13.1867 58.3523 13.9533 58.3523 14.62C58.3523 15.2867 58.4457 15.7133 58.6323 15.9C58.8323 16.0867 59.0723 16.18 59.3523 16.18ZM78.3202 18.12C77.5068 18.12 76.9068 17.9067 76.5202 17.48C76.1468 17.04 75.9602 16.5 75.9602 15.86C75.9602 15.58 75.9935 15.2667 76.0602 14.92C76.1268 14.56 76.1935 14.2133 76.2602 13.88C76.3402 13.5467 76.3935 13.3333 76.4202 13.24C76.5268 12.7733 76.6268 12.3133 76.7202 11.86C76.8135 11.4067 76.8602 11.04 76.8602 10.76C76.8602 10.08 76.6202 9.74 76.1402 9.74C75.7935 9.74 75.4868 9.91333 75.2202 10.26C74.9535 10.5933 74.7402 11.0333 74.5802 11.58L73.2202 18H70.3402L71.8002 11.1C71.8402 10.94 71.8602 10.7733 71.8602 10.6C71.8602 10.0133 71.6602 9.72 71.2602 9.72C70.8868 9.72 70.5602 9.89333 70.2802 10.24C70.0135 10.5733 69.8002 11.02 69.6402 11.58L68.2802 18H65.4002L67.5202 8H70.4002L70.1802 9.04C70.8602 8.28 71.6735 7.9 72.6202 7.9C73.7935 7.9 74.4802 8.47333 74.6802 9.62C75.4135 8.48667 76.3402 7.92 77.4602 7.92C78.1402 7.92 78.6802 8.10667 79.0802 8.48C79.4802 8.85333 79.6802 9.42 79.6802 10.18C79.6802 10.5667 79.6335 11 79.5402 11.48C79.4468 11.9467 79.3135 12.52 79.1402 13.2C79.0335 13.6133 78.9335 14.02 78.8402 14.42C78.7602 14.8067 78.7202 15.1133 78.7202 15.34C78.7202 15.6067 78.7802 15.8133 78.9002 15.96C79.0202 16.1067 79.2268 16.18 79.5202 16.18C79.9202 16.18 80.2402 16.04 80.4802 15.76C80.7202 15.4667 80.9602 15.02 81.2002 14.42H82.0402C81.5468 15.8867 80.9735 16.8733 80.3202 17.38C79.6802 17.8733 79.0135 18.12 78.3202 18.12ZM84.5392 6.92C84.0992 6.92 83.7259 6.76667 83.4192 6.46C83.1126 6.15333 82.9592 5.78 82.9592 5.34C82.9592 4.9 83.1126 4.52667 83.4192 4.22C83.7259 3.9 84.0992 3.74 84.5392 3.74C84.9792 3.74 85.3526 3.9 85.6592 4.22C85.9792 4.52667 86.1392 4.9 86.1392 5.34C86.1392 5.78 85.9792 6.15333 85.6592 6.46C85.3526 6.76667 84.9792 6.92 84.5392 6.92ZM83.1792 18.12C82.5392 18.12 82.0192 17.92 81.6192 17.52C81.2326 17.12 81.0392 16.52 81.0392 15.72C81.0392 15.3867 81.0926 14.9533 81.1992 14.42L82.5592 8H85.4392L83.9992 14.8C83.9459 15 83.9192 15.2133 83.9192 15.44C83.9192 15.7067 83.9792 15.9 84.0992 16.02C84.2326 16.1267 84.4459 16.18 84.7392 16.18C85.1259 16.18 85.4859 16.02 85.8192 15.7C86.1526 15.3667 86.3926 14.94 86.5392 14.42H87.3792C86.8859 15.86 86.2526 16.84 85.4792 17.36C84.7059 17.8667 83.9392 18.12 83.1792 18.12ZM93.4113 18.12C92.7046 18.12 92.1913 17.9067 91.8713 17.48C91.5513 17.0533 91.3913 16.5133 91.3913 15.86C91.3913 15.58 91.4246 15.2667 91.4913 14.92C91.5579 14.56 91.6246 14.2133 91.6913 13.88C91.7713 13.5467 91.8246 13.3333 91.8513 13.24C91.9579 12.7733 92.0579 12.3133 92.1513 11.86C92.2446 11.4067 92.2913 11.04 92.2913 10.76C92.2913 10.08 92.0513 9.74 91.5713 9.74C91.2246 9.74 90.9179 9.91333 90.6513 10.26C90.3846 10.5933 90.1713 11.0333 90.0113 11.58L88.6513 18H85.7712L87.8913 8H90.7713L90.5513 9.04C91.2179 8.29333 91.9979 7.92 92.8913 7.92C93.5713 7.92 94.1113 8.10667 94.5113 8.48C94.9113 8.85333 95.1113 9.42 95.1113 10.18C95.1113 10.5667 95.0646 11 94.9713 11.48C94.8779 11.9467 94.7446 12.52 94.5713 13.2C94.4646 13.6133 94.3646 14.02 94.2713 14.42C94.1913 14.8067 94.1513 15.1133 94.1513 15.34C94.1513 15.6067 94.2113 15.8133 94.3313 15.96C94.4513 16.1067 94.6579 16.18 94.9513 16.18C95.2713 16.18 95.4913 16.14 95.6113 16.06C95.5313 16.74 95.2846 17.2533 94.8713 17.6C94.4713 17.9467 93.9846 18.12 93.4113 18.12Z" fill="#004A74"/>
</g>
<defs>
<clipPath id="clip0_103_2">
<rect width="100" height="20" fill="white"/>
</clipPath>
</defs>
</svg>
