<svg width="108" height="16" viewBox="0 0 108 16" fill="none" xmlns="http://www.w3.org/2000/svg">
<path d="M7.74 15.34C7.20667 15.34 6.74 15.2267 6.34 15C5.95333 14.7867 5.76 14.4067 5.76 13.86C5.76 13.5133 5.84667 13.1267 6.02 12.7C6.26 12.9667 6.48 13.1533 6.68 13.26C6.89333 13.3667 7.12 13.42 7.36 13.42C8.02667 13.42 8.52 13.0467 8.84 12.3C9.17333 11.5533 9.34 10.7267 9.34 9.82C9.34 8.12667 8.70667 7.28 7.44 7.28C7.08 7.28 6.77333 7.3 6.52 7.34L4.88 15H2L4.72 2.28L7.68 1.88L6.74 6.32H6.86C7.36667 6.32 7.84 6.16 8.28 5.84C8.72 5.50667 9.07333 5.09333 9.34 4.6C9.60667 4.09333 9.74 3.58667 9.74 3.08C9.74 2.46667 9.52 1.95333 9.08 1.54C8.65333 1.12667 7.99333 0.919999 7.1 0.919999C6.28667 0.919999 5.49333 1.10667 4.72 1.48C3.94667 1.84 3.31333 2.38667 2.82 3.12C2.34 3.85333 2.1 4.74 2.1 5.78C2.1 6.27333 2.14667 6.62 2.24 6.82C2.33333 7.00667 2.38 7.11333 2.38 7.14C1.67333 7.14 1.14 7 0.78 6.72C0.42 6.42667 0.24 5.95333 0.24 5.3C0.24 4.39333 0.58 3.53333 1.26 2.72C1.94 1.90667 2.84 1.25333 3.96 0.76C5.08 0.253332 6.26 -1.19209e-06 7.5 -1.19209e-06C8.43333 -1.19209e-06 9.22 0.146666 9.86 0.439999C10.5 0.733333 10.9733 1.12 11.28 1.6C11.6 2.08 11.76 2.60667 11.76 3.18C11.76 3.79333 11.5867 4.38667 11.24 4.96C10.8933 5.53333 10.4 6 9.76 6.36C10.56 6.50667 11.1533 6.88 11.54 7.48C11.9267 8.06667 12.12 8.76667 12.12 9.58C12.12 10.34 11.9733 11.1667 11.68 12.06C11.4 12.9533 10.9267 13.7267 10.26 14.38C9.60667 15.02 8.76667 15.34 7.74 15.34ZM16.1525 3.92C15.7125 3.92 15.3392 3.76667 15.0325 3.46C14.7258 3.15333 14.5725 2.78 14.5725 2.34C14.5725 1.9 14.7258 1.52667 15.0325 1.22C15.3392 0.899999 15.7125 0.739999 16.1525 0.739999C16.5925 0.739999 16.9658 0.899999 17.2725 1.22C17.5925 1.52667 17.7525 1.9 17.7525 2.34C17.7525 2.78 17.5925 3.15333 17.2725 3.46C16.9658 3.76667 16.5925 3.92 16.1525 3.92ZM14.7925 15.12C14.1525 15.12 13.6325 14.92 13.2325 14.52C12.8458 14.12 12.6525 13.52 12.6525 12.72C12.6525 12.3867 12.7058 11.9533 12.8125 11.42L14.1725 5H17.0525L15.6125 11.8C15.5592 12 15.5325 12.2133 15.5325 12.44C15.5325 12.7067 15.5925 12.9 15.7125 13.02C15.8458 13.1267 16.0592 13.18 16.3525 13.18C16.5925 13.18 16.8058 13.14 16.9925 13.06C16.9392 13.7267 16.6992 14.24 16.2725 14.6C15.8592 14.9467 15.3658 15.12 14.7925 15.12ZM22.9722 1.76H22.7322C21.5455 1.76 20.6189 2.06 19.9522 2.66C19.2989 3.24667 18.9722 4.29333 18.9722 5.8C18.9722 6.29333 19.0189 6.64 19.1122 6.84C19.2055 7.02667 19.2522 7.13333 19.2522 7.16C18.5322 7.16 17.9922 7.01333 17.6322 6.72C17.2855 6.41333 17.1122 5.91333 17.1122 5.22C17.1122 4.27333 17.3455 3.41333 17.8122 2.64C18.2789 1.85333 19.0189 1.22 20.0322 0.739999C21.0589 0.259999 22.3589 0.0199997 23.9322 0.0199997C24.8122 0.0199997 25.7589 0.0999995 26.7722 0.259999C27.6255 0.406666 28.3855 0.48 29.0522 0.48C29.9055 0.48 30.6789 0.34 31.3722 0.0599992C31.3455 0.926666 31.1255 1.56667 30.7122 1.98C30.2989 2.39333 29.6855 2.6 28.8722 2.6C28.4455 2.6 28.0189 2.56667 27.5922 2.5C27.1655 2.43333 26.5589 2.32 25.7722 2.16L23.0122 15H20.1322L22.9722 1.76ZM29.0211 15.12C28.2611 15.12 27.6278 14.86 27.1211 14.34C26.6144 13.82 26.3611 13.0067 26.3611 11.9C26.3611 10.9133 26.5544 9.88 26.9411 8.8C27.3411 7.70667 27.9278 6.78667 28.7011 6.04C29.4878 5.28 30.4211 4.9 31.5011 4.9C32.0478 4.9 32.4544 4.99333 32.7211 5.18C32.9878 5.36667 33.1211 5.61333 33.1211 5.92V6.06L33.3411 5H36.2211L34.7811 11.8C34.7278 12 34.7011 12.2133 34.7011 12.44C34.7011 12.7067 34.7611 12.9 34.8811 13.02C35.0144 13.1267 35.2278 13.18 35.5211 13.18C35.7078 13.18 35.8544 13.1533 35.9611 13.1C35.6678 13.8467 35.3878 14.3733 35.1211 14.68C34.8544 14.9733 34.4678 15.12 33.9611 15.12C33.4144 15.12 32.9678 14.96 32.6211 14.64C32.2878 14.3067 32.0811 13.8467 32.0011 13.26C31.1878 14.5 30.1944 15.12 29.0211 15.12ZM30.3211 13.18C30.6544 13.18 30.9811 13.0267 31.3011 12.72C31.6344 12.4 31.8611 11.9667 31.9811 11.42L32.9411 6.9C32.9411 6.72667 32.8744 6.56 32.7411 6.4C32.6078 6.22667 32.4011 6.14 32.1211 6.14C31.5878 6.14 31.1078 6.45333 30.6811 7.08C30.2544 7.69333 29.9211 8.44 29.6811 9.32C29.4411 10.1867 29.3211 10.9533 29.3211 11.62C29.3211 12.2867 29.4144 12.7133 29.6011 12.9C29.8011 13.0867 30.0411 13.18 30.3211 13.18Z" fill="#3FA3DB"/>
<path d="M48.033 15.34C47.4996 15.34 47.033 15.2267 46.633 15C46.2463 14.7867 46.053 14.4067 46.053 13.86C46.053 13.5133 46.1396 13.1267 46.313 12.7C46.553 12.9667 46.773 13.1533 46.973 13.26C47.1863 13.3667 47.413 13.42 47.653 13.42C48.3196 13.42 48.813 13.0467 49.133 12.3C49.4663 11.5533 49.633 10.7267 49.633 9.82C49.633 8.12667 48.9996 7.28 47.733 7.28C47.373 7.28 47.0663 7.3 46.813 7.34L45.173 15H42.293L45.013 2.28L47.973 1.88L47.033 6.32H47.153C47.6596 6.32 48.133 6.16 48.573 5.84C49.013 5.50667 49.3663 5.09333 49.633 4.6C49.8996 4.09333 50.033 3.58667 50.033 3.08C50.033 2.46667 49.813 1.95333 49.373 1.54C48.9463 1.12667 48.2863 0.919999 47.393 0.919999C46.5796 0.919999 45.7863 1.10667 45.013 1.48C44.2396 1.84 43.6063 2.38667 43.113 3.12C42.633 3.85333 42.393 4.74 42.393 5.78C42.393 6.27333 42.4396 6.62 42.533 6.82C42.6263 7.00667 42.673 7.11333 42.673 7.14C41.9663 7.14 41.433 7 41.073 6.72C40.713 6.42667 40.533 5.95333 40.533 5.3C40.533 4.39333 40.873 3.53333 41.553 2.72C42.233 1.90667 43.133 1.25333 44.253 0.76C45.373 0.253332 46.553 -1.19209e-06 47.793 -1.19209e-06C48.7263 -1.19209e-06 49.513 0.146666 50.153 0.439999C50.793 0.733333 51.2663 1.12 51.573 1.6C51.893 2.08 52.053 2.60667 52.053 3.18C52.053 3.79333 51.8796 4.38667 51.533 4.96C51.1863 5.53333 50.693 6 50.053 6.36C50.853 6.50667 51.4463 6.88 51.833 7.48C52.2196 8.06667 52.413 8.76667 52.413 9.58C52.413 10.34 52.2663 11.1667 51.973 12.06C51.693 12.9533 51.2196 13.7267 50.553 14.38C49.8996 15.02 49.0596 15.34 48.033 15.34ZM55.0855 15.12C54.4455 15.12 53.9255 14.92 53.5255 14.52C53.1388 14.12 52.9455 13.52 52.9455 12.72C52.9455 12.3867 52.9988 11.9533 53.1055 11.42L54.4655 5H57.3455L55.9055 11.8C55.8655 12 55.8455 12.1867 55.8455 12.36C55.8455 12.9067 56.0455 13.18 56.4455 13.18C56.8188 13.18 57.1388 13.0267 57.4055 12.72C57.6721 12.4 57.8855 11.9667 58.0455 11.42L59.4055 5H62.2855L60.8455 11.8C60.7921 12 60.7655 12.2133 60.7655 12.44C60.7655 12.7067 60.8255 12.9 60.9455 13.02C61.0788 13.1267 61.2921 13.18 61.5855 13.18C61.9588 13.18 62.2788 13.02 62.5455 12.7C62.8255 12.38 63.0455 11.9533 63.2055 11.42H64.0455C63.5521 12.86 62.9388 13.84 62.2055 14.36C61.4855 14.8667 60.7588 15.12 60.0255 15.12C59.4521 15.12 58.9921 14.96 58.6455 14.64C58.3121 14.32 58.1121 13.8467 58.0455 13.22C57.5921 13.9533 57.1121 14.4533 56.6055 14.72C56.1121 14.9867 55.6055 15.12 55.0855 15.12ZM65.4831 15.12C64.8431 15.12 64.3031 15 63.8631 14.76C63.4231 14.5067 63.0965 14.1867 62.8831 13.8C62.6698 13.4 62.5631 12.9867 62.5631 12.56C62.5631 12.12 62.6698 11.74 62.8831 11.42C63.0831 11.0867 63.3298 10.8467 63.6231 10.7C64.1431 9.76667 64.5965 8.82667 64.9831 7.88C65.3698 6.92 65.7365 5.88667 66.0831 4.78L69.0431 4.38C69.1098 6.08667 69.2231 7.93333 69.3831 9.92C69.4498 10.72 69.4831 11.3 69.4831 11.66C69.4831 11.9667 69.4565 12.22 69.4031 12.42C70.0298 12.06 70.5098 11.7267 70.8431 11.42H71.6831C70.8298 12.4067 69.8098 13.24 68.6231 13.92C68.2365 14.3333 67.7565 14.64 67.1831 14.84C66.6231 15.0267 66.0565 15.12 65.4831 15.12ZM64.8431 13.54C65.3365 13.54 65.7498 13.3933 66.0831 13.1C66.4165 12.8067 66.5831 12.3333 66.5831 11.68C66.5831 11.28 66.5431 10.72 66.4631 10C66.3298 8.48 66.2431 7.46 66.2031 6.94C65.8831 7.99333 65.3431 9.25333 64.5831 10.72C64.8898 10.88 65.0431 11.1133 65.0431 11.42C65.0431 11.6733 64.9565 11.9 64.7831 12.1C64.6231 12.3 64.4165 12.4 64.1631 12.4C63.8831 12.4 63.7031 12.3133 63.6231 12.14C63.6231 12.62 63.7165 12.9733 63.9031 13.2C64.1031 13.4267 64.4165 13.54 64.8431 13.54ZM74.1798 3.92C73.7398 3.92 73.3665 3.76667 73.0598 3.46C72.7532 3.15333 72.5998 2.78 72.5998 2.34C72.5998 1.9 72.7532 1.52667 73.0598 1.22C73.3665 0.899999 73.7398 0.739999 74.1798 0.739999C74.6198 0.739999 74.9932 0.899999 75.2998 1.22C75.6198 1.52667 75.7798 1.9 75.7798 2.34C75.7798 2.78 75.6198 3.15333 75.2998 3.46C74.9932 3.76667 74.6198 3.92 74.1798 3.92ZM72.8198 15.12C72.1798 15.12 71.6598 14.92 71.2598 14.52C70.8732 14.12 70.6798 13.52 70.6798 12.72C70.6798 12.3867 70.7332 11.9533 70.8398 11.42L72.1998 5H75.0798L73.6398 11.8C73.5865 12 73.5598 12.2133 73.5598 12.44C73.5598 12.7067 73.6198 12.9 73.7398 13.02C73.8732 13.1267 74.0865 13.18 74.3798 13.18C74.7665 13.18 75.1265 13.02 75.4598 12.7C75.7932 12.3667 76.0332 11.94 76.1798 11.42H77.0198C76.5265 12.86 75.8932 13.84 75.1198 14.36C74.3465 14.8667 73.5798 15.12 72.8198 15.12ZM83.3919 15.12C82.5785 15.12 81.9785 14.9067 81.5919 14.48C81.2185 14.04 81.0319 13.5 81.0319 12.86C81.0319 12.58 81.0652 12.2667 81.1319 11.92C81.1985 11.56 81.2652 11.2133 81.3319 10.88C81.4119 10.5467 81.4652 10.3333 81.4919 10.24C81.5985 9.77333 81.6985 9.31333 81.7919 8.86C81.8852 8.40667 81.9319 8.04 81.9319 7.76C81.9319 7.08 81.6919 6.74 81.2119 6.74C80.8652 6.74 80.5585 6.91333 80.2919 7.26C80.0252 7.59333 79.8119 8.03333 79.6519 8.58L78.2919 15H75.4119L77.5319 5H80.4119L80.1919 6.04C80.8585 5.29333 81.6385 4.92 82.5319 4.92C83.2119 4.92 83.7519 5.10667 84.1519 5.48C84.5519 5.85333 84.7519 6.42 84.7519 7.18C84.7519 7.56667 84.7052 8 84.6119 8.48C84.5185 8.94667 84.3852 9.52 84.2119 10.2C84.1052 10.6133 84.0052 11.02 83.9119 11.42C83.8319 11.8067 83.7919 12.1133 83.7919 12.34C83.7919 12.6067 83.8519 12.8133 83.9719 12.96C84.0919 13.1067 84.2985 13.18 84.5919 13.18C84.9919 13.18 85.3119 13.04 85.5519 12.76C85.7919 12.4667 86.0319 12.02 86.2719 11.42H87.1119C86.6185 12.8867 86.0452 13.8733 85.3919 14.38C84.7519 14.8733 84.0852 15.12 83.3919 15.12ZM89.1295 15.12C88.1429 15.12 87.3762 14.8667 86.8295 14.36C86.2829 13.84 86.0095 13.0333 86.0095 11.94C86.0095 11.02 86.1895 10.0067 86.5495 8.9C86.9095 7.79333 87.4962 6.84 88.3095 6.04C89.1229 5.22667 90.1562 4.82 91.4095 4.82C92.8762 4.82 93.6095 5.46 93.6095 6.74C93.6095 7.48667 93.3962 8.17333 92.9695 8.8C92.5429 9.42667 91.9762 9.93333 91.2695 10.32C90.5629 10.6933 89.8095 10.9067 89.0095 10.96C88.9829 11.36 88.9695 11.6267 88.9695 11.76C88.9695 12.4133 89.0829 12.86 89.3095 13.1C89.5362 13.3267 89.9029 13.44 90.4095 13.44C91.1295 13.44 91.7429 13.2733 92.2495 12.94C92.7695 12.6067 93.3362 12.1 93.9495 11.42H94.6295C93.1495 13.8867 91.3162 15.12 89.1295 15.12ZM89.1695 10C89.6629 9.97333 90.1295 9.8 90.5695 9.48C91.0229 9.16 91.3829 8.75333 91.6495 8.26C91.9295 7.76667 92.0695 7.24667 92.0695 6.7C92.0695 6.15333 91.9029 5.88 91.5695 5.88C91.0895 5.88 90.6162 6.3 90.1495 7.14C89.6962 7.98 89.3695 8.93333 89.1695 10ZM96.2253 15.12C95.5853 15.12 95.0453 15 94.6053 14.76C94.1653 14.5067 93.8386 14.1867 93.6253 13.8C93.412 13.4 93.3053 12.9867 93.3053 12.56C93.3053 12.12 93.412 11.74 93.6253 11.42C93.8253 11.0867 94.072 10.8467 94.3653 10.7C94.8853 9.76667 95.3386 8.82667 95.7253 7.88C96.112 6.92 96.4786 5.88667 96.8253 4.78L99.7853 4.38C99.852 6.08667 99.9653 7.93333 100.125 9.92C100.192 10.72 100.225 11.3 100.225 11.66C100.225 11.9667 100.199 12.22 100.145 12.42C100.772 12.06 101.252 11.7267 101.585 11.42H102.425C101.572 12.4067 100.552 13.24 99.3653 13.92C98.9786 14.3333 98.4986 14.64 97.9253 14.84C97.3653 15.0267 96.7986 15.12 96.2253 15.12ZM95.5853 13.54C96.0786 13.54 96.492 13.3933 96.8253 13.1C97.1586 12.8067 97.3253 12.3333 97.3253 11.68C97.3253 11.28 97.2853 10.72 97.2053 10C97.072 8.48 96.9853 7.46 96.9453 6.94C96.6253 7.99333 96.0853 9.25333 95.3253 10.72C95.632 10.88 95.7853 11.1133 95.7853 11.42C95.7853 11.6733 95.6986 11.9 95.5253 12.1C95.3653 12.3 95.1586 12.4 94.9053 12.4C94.6253 12.4 94.4453 12.3133 94.3653 12.14C94.3653 12.62 94.4586 12.9733 94.6453 13.2C94.8453 13.4267 95.1586 13.54 95.5853 13.54ZM103.862 15.12C103.222 15.12 102.682 15 102.242 14.76C101.802 14.5067 101.475 14.1867 101.262 13.8C101.049 13.4 100.942 12.9867 100.942 12.56C100.942 12.12 101.049 11.74 101.262 11.42C101.462 11.0867 101.709 10.8467 102.002 10.7C102.522 9.76667 102.975 8.82667 103.362 7.88C103.749 6.92 104.115 5.88667 104.462 4.78L107.422 4.38C107.489 6.08667 107.602 7.93333 107.762 9.92C107.829 10.72 107.862 11.3 107.862 11.66C107.862 12.4733 107.655 13.14 107.242 13.66C106.829 14.18 106.315 14.5533 105.702 14.78C105.102 15.0067 104.489 15.12 103.862 15.12ZM103.222 13.54C103.715 13.54 104.129 13.3933 104.462 13.1C104.795 12.8067 104.962 12.3333 104.962 11.68C104.962 11.28 104.922 10.72 104.842 10C104.709 8.48 104.622 7.46 104.582 6.94C104.262 7.99333 103.722 9.25333 102.962 10.72C103.269 10.88 103.422 11.1133 103.422 11.42C103.422 11.6733 103.335 11.9 103.162 12.1C103.002 12.3 102.795 12.4 102.542 12.4C102.262 12.4 102.082 12.3133 102.002 12.14C102.002 12.62 102.095 12.9733 102.282 13.2C102.482 13.4267 102.795 13.54 103.222 13.54Z" fill="#004A74"/>
</svg>
