<svg width="38" height="20" viewBox="0 0 38 20" fill="none" xmlns="http://www.w3.org/2000/svg">
<g clip-path="url(#clip0)">
<path d="M8.74 17.34C8.20667 17.34 7.74 17.2267 7.34 17C6.95333 16.7867 6.76 16.4067 6.76 15.86C6.76 15.5133 6.84667 15.1267 7.02 14.7C7.26 14.9667 7.48 15.1533 7.68 15.26C7.89333 15.3667 8.12 15.42 8.36 15.42C9.02667 15.42 9.52 15.0467 9.84 14.3C10.1733 13.5533 10.34 12.7267 10.34 11.82C10.34 10.1267 9.70667 9.28 8.44 9.28C8.08 9.28 7.77333 9.3 7.52 9.34L5.88 17H3L5.72 4.28L8.68 3.88L7.74 8.32H7.86C8.36667 8.32 8.84 8.16 9.28 7.84C9.72 7.50667 10.0733 7.09333 10.34 6.6C10.6067 6.09333 10.74 5.58667 10.74 5.08C10.74 4.46667 10.52 3.95333 10.08 3.54C9.65333 3.12667 8.99333 2.92 8.1 2.92C7.28667 2.92 6.49333 3.10667 5.72 3.48C4.94667 3.84 4.31333 4.38667 3.82 5.12C3.34 5.85333 3.1 6.74 3.1 7.78C3.1 8.27333 3.14667 8.62 3.24 8.82C3.33333 9.00667 3.38 9.11333 3.38 9.14C2.67333 9.14 2.14 9 1.78 8.72C1.42 8.42667 1.24 7.95333 1.24 7.3C1.24 6.39333 1.58 5.53333 2.26 4.72C2.94 3.90667 3.84 3.25333 4.96 2.76C6.08 2.25333 7.26 2 8.5 2C9.43333 2 10.22 2.14667 10.86 2.44C11.5 2.73333 11.9733 3.12 12.28 3.6C12.6 4.08 12.76 4.60667 12.76 5.18C12.76 5.79333 12.5867 6.38667 12.24 6.96C11.8933 7.53333 11.4 8 10.76 8.36C11.56 8.50667 12.1533 8.88 12.54 9.48C12.9267 10.0667 13.12 10.7667 13.12 11.58C13.12 12.34 12.9733 13.1667 12.68 14.06C12.4 14.9533 11.9267 15.7267 11.26 16.38C10.6067 17.02 9.76667 17.34 8.74 17.34ZM17.1525 5.92C16.7125 5.92 16.3392 5.76667 16.0325 5.46C15.7258 5.15333 15.5725 4.78 15.5725 4.34C15.5725 3.9 15.7258 3.52667 16.0325 3.22C16.3392 2.9 16.7125 2.74 17.1525 2.74C17.5925 2.74 17.9658 2.9 18.2725 3.22C18.5925 3.52667 18.7525 3.9 18.7525 4.34C18.7525 4.78 18.5925 5.15333 18.2725 5.46C17.9658 5.76667 17.5925 5.92 17.1525 5.92ZM15.7925 17.12C15.1525 17.12 14.6325 16.92 14.2325 16.52C13.8458 16.12 13.6525 15.52 13.6525 14.72C13.6525 14.3867 13.7058 13.9533 13.8125 13.42L15.1725 7H18.0525L16.6125 13.8C16.5592 14 16.5325 14.2133 16.5325 14.44C16.5325 14.7067 16.5925 14.9 16.7125 15.02C16.8458 15.1267 17.0592 15.18 17.3525 15.18C17.5925 15.18 17.8058 15.14 17.9925 15.06C17.9392 15.7267 17.6992 16.24 17.2725 16.6C16.8592 16.9467 16.3658 17.12 15.7925 17.12ZM23.9722 3.76H23.7322C22.5455 3.76 21.6189 4.06 20.9522 4.66C20.2989 5.24667 19.9722 6.29333 19.9722 7.8C19.9722 8.29333 20.0189 8.64 20.1122 8.84C20.2055 9.02667 20.2522 9.13333 20.2522 9.16C19.5322 9.16 18.9922 9.01333 18.6322 8.72C18.2855 8.41333 18.1122 7.91333 18.1122 7.22C18.1122 6.27333 18.3455 5.41333 18.8122 4.64C19.2789 3.85333 20.0189 3.22 21.0322 2.74C22.0589 2.26 23.3589 2.02 24.9322 2.02C25.8122 2.02 26.7589 2.1 27.7722 2.26C28.6255 2.40667 29.3855 2.48 30.0522 2.48C30.9055 2.48 31.6789 2.34 32.3722 2.06C32.3455 2.92667 32.1255 3.56667 31.7122 3.98C31.2989 4.39333 30.6855 4.6 29.8722 4.6C29.4455 4.6 29.0189 4.56667 28.5922 4.5C28.1655 4.43333 27.5589 4.32 26.7722 4.16L24.0122 17H21.1322L23.9722 3.76ZM30.0211 17.12C29.2611 17.12 28.6278 16.86 28.1211 16.34C27.6144 15.82 27.3611 15.0067 27.3611 13.9C27.3611 12.9133 27.5544 11.88 27.9411 10.8C28.3411 9.70667 28.9278 8.78667 29.7011 8.04C30.4878 7.28 31.4211 6.9 32.5011 6.9C33.0478 6.9 33.4544 6.99333 33.7211 7.18C33.9878 7.36667 34.1211 7.61333 34.1211 7.92V8.06L34.3411 7H37.2211L35.7811 13.8C35.7278 14 35.7011 14.2133 35.7011 14.44C35.7011 14.7067 35.7611 14.9 35.8811 15.02C36.0144 15.1267 36.2278 15.18 36.5211 15.18C36.7078 15.18 36.8544 15.1533 36.9611 15.1C36.6678 15.8467 36.3878 16.3733 36.1211 16.68C35.8544 16.9733 35.4678 17.12 34.9611 17.12C34.4144 17.12 33.9678 16.96 33.6211 16.64C33.2878 16.3067 33.0811 15.8467 33.0011 15.26C32.1878 16.5 31.1944 17.12 30.0211 17.12ZM31.3211 15.18C31.6544 15.18 31.9811 15.0267 32.3011 14.72C32.6344 14.4 32.8611 13.9667 32.9811 13.42L33.9411 8.9C33.9411 8.72667 33.8744 8.56 33.7411 8.4C33.6078 8.22667 33.4011 8.14 33.1211 8.14C32.5878 8.14 32.1078 8.45333 31.6811 9.08C31.2544 9.69333 30.9211 10.44 30.6811 11.32C30.4411 12.1867 30.3211 12.9533 30.3211 13.62C30.3211 14.2867 30.4144 14.7133 30.6011 14.9C30.8011 15.0867 31.0411 15.18 31.3211 15.18Z" fill="#3FA3DB"/>
</g>
<defs>
<clipPath id="clip0">
<rect width="38" height="20" fill="white"/>
</clipPath>
</defs>
</svg>
