<svg width="200" height="106" viewBox="0 0 200 106" fill="none" xmlns="http://www.w3.org/2000/svg">
<g clip-path="url(#clip0_10_11)">
<path d="M53.83 87.53C51.43 87.53 49.33 87.02 47.53 86C45.79 85.04 44.92 83.33 44.92 80.87C44.92 79.31 45.31 77.57 46.09 75.65C47.17 76.85 48.16 77.69 49.06 78.17C50.02 78.65 51.04 78.89 52.12 78.89C55.12 78.89 57.34 77.21 58.78 73.85C60.28 70.49 61.03 66.77 61.03 62.69C61.03 55.07 58.18 51.26 52.48 51.26C50.86 51.26 49.48 51.35 48.34 51.53L40.96 86H28L40.24 28.76L53.56 26.96L49.33 46.94H49.87C52.15 46.94 54.28 46.22 56.26 44.78C58.24 43.28 59.83 41.42 61.03 39.2C62.23 36.92 62.83 34.64 62.83 32.36C62.83 29.6 61.84 27.29 59.86 25.43C57.94 23.57 54.97 22.64 50.95 22.64C47.29 22.64 43.72 23.48 40.24 25.16C36.76 26.78 33.91 29.24 31.69 32.54C29.53 35.84 28.45 39.83 28.45 44.51C28.45 46.73 28.66 48.29 29.08 49.19C29.5 50.03 29.71 50.51 29.71 50.63C26.53 50.63 24.13 50 22.51 48.74C20.89 47.42 20.08 45.29 20.08 42.35C20.08 38.27 21.61 34.4 24.67 30.74C27.73 27.08 31.78 24.14 36.82 21.92C41.86 19.64 47.17 18.5 52.75 18.5C56.95 18.5 60.49 19.16 63.37 20.48C66.25 21.8 68.38 23.54 69.76 25.7C71.2 27.86 71.92 30.23 71.92 32.81C71.92 35.57 71.14 38.24 69.58 40.82C68.02 43.4 65.8 45.5 62.92 47.12C66.52 47.78 69.19 49.46 70.93 52.16C72.67 54.8 73.54 57.95 73.54 61.61C73.54 65.03 72.88 68.75 71.56 72.77C70.3 76.79 68.17 80.27 65.17 83.21C62.23 86.09 58.45 87.53 53.83 87.53ZM91.6863 36.14C89.7063 36.14 88.0263 35.45 86.6463 34.07C85.2663 32.69 84.5763 31.01 84.5763 29.03C84.5763 27.05 85.2663 25.37 86.6463 23.99C88.0263 22.55 89.7063 21.83 91.6863 21.83C93.6663 21.83 95.3463 22.55 96.7263 23.99C98.1663 25.37 98.8863 27.05 98.8863 29.03C98.8863 31.01 98.1663 32.69 96.7263 34.07C95.3463 35.45 93.6663 36.14 91.6863 36.14ZM85.5663 86.54C82.6863 86.54 80.3463 85.64 78.5463 83.84C76.8063 82.04 75.9362 79.34 75.9362 75.74C75.9362 74.24 76.1762 72.29 76.6562 69.89L82.7763 41H95.7363L89.2563 71.6C89.0163 72.5 88.8963 73.46 88.8963 74.48C88.8963 75.68 89.1663 76.55 89.7063 77.09C90.3063 77.57 91.2663 77.81 92.5863 77.81C93.6663 77.81 94.6263 77.63 95.4663 77.27C95.2263 80.27 94.1463 82.58 92.2263 84.2C90.3663 85.76 88.1463 86.54 85.5663 86.54ZM122.375 26.42H121.295C115.955 26.42 111.785 27.77 108.785 30.47C105.845 33.11 104.375 37.82 104.375 44.6C104.375 46.82 104.585 48.38 105.005 49.28C105.425 50.12 105.635 50.6 105.635 50.72C102.395 50.72 99.9648 50.06 98.3448 48.74C96.7848 47.36 96.0048 45.11 96.0048 41.99C96.0048 37.73 97.0548 33.86 99.1548 30.38C101.255 26.84 104.585 23.99 109.145 21.83C113.765 19.67 119.615 18.59 126.695 18.59C130.655 18.59 134.915 18.95 139.475 19.67C143.315 20.33 146.735 20.66 149.735 20.66C153.575 20.66 157.055 20.03 160.175 18.77C160.055 22.67 159.065 25.55 157.205 27.41C155.345 29.27 152.585 30.2 148.925 30.2C147.005 30.2 145.085 30.05 143.165 29.75C141.245 29.45 138.515 28.94 134.975 28.22L122.555 86H109.595L122.375 26.42ZM149.595 86.54C146.175 86.54 143.325 85.37 141.045 83.03C138.765 80.69 137.625 77.03 137.625 72.05C137.625 67.61 138.495 62.96 140.235 58.1C142.035 53.18 144.675 49.04 148.155 45.68C151.695 42.26 155.895 40.55 160.755 40.55C163.215 40.55 165.045 40.97 166.245 41.81C167.445 42.65 168.045 43.76 168.045 45.14V45.77L169.035 41H181.995L175.515 71.6C175.275 72.5 175.155 73.46 175.155 74.48C175.155 75.68 175.425 76.55 175.965 77.09C176.565 77.57 177.525 77.81 178.845 77.81C179.685 77.81 180.345 77.69 180.825 77.45C179.505 80.81 178.245 83.18 177.045 84.56C175.845 85.88 174.105 86.54 171.825 86.54C169.365 86.54 167.355 85.82 165.795 84.38C164.295 82.88 163.365 80.81 163.005 78.17C159.345 83.75 154.875 86.54 149.595 86.54ZM155.445 77.81C156.945 77.81 158.415 77.12 159.855 75.74C161.355 74.3 162.375 72.35 162.915 69.89L167.235 49.55C167.235 48.77 166.935 48.02 166.335 47.3C165.735 46.52 164.805 46.13 163.545 46.13C161.145 46.13 158.985 47.54 157.065 50.36C155.145 53.12 153.645 56.48 152.565 60.44C151.485 64.34 150.945 67.79 150.945 70.79C150.945 73.79 151.365 75.71 152.205 76.55C153.105 77.39 154.185 77.81 155.445 77.81Z" fill="#3FA3DB"/>
</g>
<defs>
<clipPath id="clip0_10_11">
<rect width="200" height="105.263" fill="white"/>
</clipPath>
</defs>
</svg>
